<svg width="56" height="56" viewBox="0 0 56 56" fill="none" xmlns="http://www.w3.org/2000/svg">
<rect width="56" height="56" rx="28" fill="#E25F2B"/>
<path d="M18.7832 18.1149C18.7832 13.1662 22.8064 9.14307 27.7551 9.14307C32.7037 9.14307 36.7269 13.1662 36.7269 18.1149C36.708 22.9692 32.9115 26.8979 28.0762 27.0679H27.9439C27.8306 27.049 27.6795 27.049 27.5284 27.0679C22.5797 26.8979 18.7832 22.9692 18.7832 18.1149Z" fill="white"/>
<path d="M18.1785 32.09C23.486 28.5768 32.08 28.5768 37.3498 32.09C39.7297 33.6766 41.033 35.8298 41.0519 38.153C41.0519 40.4952 39.7297 42.6484 37.3498 44.2539C34.7055 46.0294 31.2301 46.9171 27.7547 46.9171C24.2793 46.9171 20.8039 46.0294 18.1596 44.2539C15.7797 42.6673 14.4575 40.5141 14.4575 38.1908C14.4575 35.8676 15.7797 33.6954 18.1785 32.09Z" fill="white"/>
</svg>
